<svg xmlns="http://www.w3.org/2000/svg" xmlns:xlink="http://www.w3.org/1999/xlink" viewBox="0 0 50 50" version="1.1" width="50" height="50">
    <g id="surface1">
        <path style=" " d="M 0.8125 12 C 0.335938 12.089844 -0.0078125 12.511719 0 13 L 0 16.6875 C -0.148438 17.144531 0.046875 17.644531 0.46875 17.875 C 0.488281 17.886719 0.511719 17.898438 0.53125 17.90625 C 0.542969 17.917969 0.550781 17.925781 0.5625 17.9375 C 0.582031 17.9375 0.605469 17.9375 0.625 17.9375 C 0.636719 17.949219 0.644531 17.957031 0.65625 17.96875 C 0.675781 17.96875 0.699219 17.96875 0.71875 17.96875 C 0.730469 17.96875 0.738281 17.96875 0.75 17.96875 C 0.8125 17.984375 0.875 17.996094 0.9375 18 C 0.949219 18 0.957031 18 0.96875 18 C 0.980469 18 0.988281 18 1 18 C 2.191406 18 3 18.808594 3 20 L 3 27 C 3 31.980469 6.371094 36.222656 10.9375 37.5625 C 10.722656 38.441406 9.992188 39 9 39 C 8.640625 38.996094 8.304688 39.183594 8.121094 39.496094 C 7.941406 39.808594 7.941406 40.191406 8.121094 40.503906 C 8.304688 40.816406 8.640625 41.003906 9 41 C 10.886719 41 12.453125 39.695313 12.875 37.9375 C 13.242188 37.976563 13.621094 38 14 38 L 36 38 C 36.378906 38 36.757813 37.976563 37.125 37.9375 C 37.546875 39.695313 39.113281 41 41 41 C 41.359375 41.003906 41.695313 40.816406 41.878906 40.503906 C 42.058594 40.191406 42.058594 39.808594 41.878906 39.496094 C 41.695313 39.183594 41.359375 38.996094 41 39 C 40.007813 39 39.277344 38.441406 39.0625 37.5625 C 43.628906 36.222656 47 31.980469 47 27 L 47 20 C 47 18.808594 47.808594 18 49 18 C 49.09375 18.003906 49.191406 17.992188 49.28125 17.96875 C 49.421875 17.925781 49.546875 17.847656 49.65625 17.75 C 49.675781 17.742188 49.699219 17.730469 49.71875 17.71875 C 49.71875 17.707031 49.71875 17.699219 49.71875 17.6875 C 49.765625 17.648438 49.804688 17.609375 49.84375 17.5625 C 49.84375 17.550781 49.84375 17.542969 49.84375 17.53125 C 49.917969 17.425781 49.96875 17.3125 50 17.1875 C 50.003906 17.144531 50.003906 17.105469 50 17.0625 C 50 17.042969 50 17.019531 50 17 L 50 16.875 C 50 16.84375 50 16.8125 50 16.78125 L 50 13 C 50 12.449219 49.550781 12 49 12 L 1 12 C 0.96875 12 0.9375 12 0.90625 12 C 0.875 12 0.84375 12 0.8125 12 Z M 2 14 L 48 14 L 48 16 L 2 16 Z M 4.4375 18 L 45.5625 18 C 45.222656 18.589844 45 19.269531 45 20 L 45 27 C 45 31.953125 40.953125 36 36 36 L 14 36 C 9.046875 36 5 31.953125 5 27 L 5 20 C 5 19.269531 4.777344 18.589844 4.4375 18 Z "/>
    </g>
</svg>