<svg xmlns="http://www.w3.org/2000/svg" xmlns:xlink="http://www.w3.org/1999/xlink" viewBox="0 0 50 50" version="1.1" width="50" height="50">
    <g id="surface1">
        <path style=" " d="M 4.5 5 C 2.027344 5 0 7.027344 0 9.5 C 0 11.046875 0.800781 12.40625 2 13.21875 L 2 48 L 7 48 L 7 44.03125 L 43 44.03125 L 43 48 L 48 48 L 48 13.21875 C 49.199219 12.40625 50 11.046875 50 9.5 C 50 7.027344 47.972656 5 45.5 5 C 43.027344 5 41 7.027344 41 9.5 C 41 11.046875 41.800781 12.40625 43 13.21875 L 43 16 L 37.1875 16 C 37.097656 15.976563 37 15.964844 36.90625 15.96875 C 36.863281 15.976563 36.820313 15.988281 36.78125 16 L 29.21875 16 C 29.117188 15.972656 29.011719 15.960938 28.90625 15.96875 C 28.875 15.976563 28.84375 15.988281 28.8125 16 L 21.21875 16 C 21.117188 15.972656 21.011719 15.960938 20.90625 15.96875 C 20.875 15.976563 20.84375 15.988281 20.8125 16 L 13.21875 16 C 13.117188 15.972656 13.011719 15.960938 12.90625 15.96875 C 12.875 15.976563 12.84375 15.988281 12.8125 16 L 7 16 L 7 13.21875 C 8.199219 12.40625 9 11.046875 9 9.5 C 9 7.027344 6.972656 5 4.5 5 Z M 4.5 7 C 5.890625 7 7 8.109375 7 9.5 C 7 10.890625 5.890625 12 4.5 12 C 3.109375 12 2 10.890625 2 9.5 C 2 8.109375 3.109375 7 4.5 7 Z M 45.5 7 C 46.890625 7 48 8.109375 48 9.5 C 48 10.890625 46.890625 12 45.5 12 C 44.109375 12 43 10.890625 43 9.5 C 43 8.109375 44.109375 7 45.5 7 Z M 4 13.9375 C 4.167969 13.957031 4.328125 14 4.5 14 C 4.671875 14 4.832031 13.957031 5 13.9375 L 5 16.6875 C 4.941406 16.882813 4.941406 17.085938 5 17.28125 L 5 35.5625 C 4.890625 35.820313 4.890625 36.117188 5 36.375 L 5 42.53125 C 4.839844 42.835938 4.839844 43.195313 5 43.5 L 5 46 L 4 46 Z M 45 13.9375 C 45.167969 13.957031 45.328125 14 45.5 14 C 45.671875 14 45.832031 13.957031 46 13.9375 L 46 46 L 45 46 L 45 43.28125 C 45.042969 43.117188 45.042969 42.945313 45 42.78125 L 45 36.28125 C 45.042969 36.117188 45.042969 35.945313 45 35.78125 L 45 17.1875 C 45.027344 17.054688 45.027344 16.914063 45 16.78125 Z M 7 18 L 12 18 L 12 34.96875 L 7 34.96875 Z M 14 18 L 20 18 L 20 34.96875 L 14 34.96875 Z M 22 18 L 28 18 L 28 34.96875 L 22 34.96875 Z M 30 18 L 36 18 L 36 34.96875 L 30 34.96875 Z M 38 18 L 43 18 L 43 34.96875 L 38 34.96875 Z M 7 37.03125 L 43 37.03125 L 43 41.96875 L 7 41.96875 Z "/>
    </g>
</svg>