<svg xmlns="http://www.w3.org/2000/svg" xmlns:xlink="http://www.w3.org/1999/xlink" viewBox="0 0 50 50" version="1.1" width="50" height="50">
    <g id="surface1">
        <path style=" " d="M 7.8125 3 C 5.171875 3 3 5.171875 3 7.8125 L 3 42.1875 C 3 44.828125 5.171875 47 7.8125 47 L 42.1875 47 C 44.828125 47 47 44.828125 47 42.1875 L 47 7.8125 C 47 5.171875 44.828125 3 42.1875 3 Z M 7.8125 5 L 42.1875 5 C 43.746094 5 45 6.253906 45 7.8125 L 45 42.1875 C 45 43.746094 43.746094 45 42.1875 45 L 7.8125 45 C 6.253906 45 5 43.746094 5 42.1875 L 5 7.8125 C 5 6.253906 6.253906 5 7.8125 5 Z M 25 10 C 16.753906 10 10 16.753906 10 25 C 10 33.246094 16.753906 40 25 40 C 33.246094 40 40 33.246094 40 25 C 40 16.753906 33.246094 10 25 10 Z M 25 12 C 32.15625 12 38 17.84375 38 25 C 38 32.15625 32.15625 38 25 38 C 17.84375 38 12 32.15625 12 25 C 12 17.84375 17.84375 12 25 12 Z M 19 23 C 17.894531 23 17 23.894531 17 25 C 17 26.105469 17.894531 27 19 27 C 20.105469 27 21 26.105469 21 25 C 21 23.894531 20.105469 23 19 23 Z M 31 23 C 29.894531 23 29 23.894531 29 25 C 29 26.105469 29.894531 27 31 27 C 32.105469 27 33 26.105469 33 25 C 33 23.894531 32.105469 23 31 23 Z "/>
    </g>
</svg>